<svg width="493" height="297" viewBox="0 0 493 297" fill="none" xmlns="http://www.w3.org/2000/svg">
<path d="M55.9539 119.618H5.72256C3.70906 119.618 2.22544 119.195 1.27168 118.351C0.423893 117.4 0 115.922 0 113.915V92.2155C0 90.2092 0.423893 88.7836 1.27168 87.9388C2.22544 86.9885 3.70906 86.5133 5.72256 86.5133H48.4828C49.8604 86.5133 50.8672 86.0909 51.503 85.2461C52.2448 84.2958 52.6157 83.187 52.6157 81.9199C52.6157 80.1247 52.2448 78.8048 51.503 77.96C50.8672 77.1152 49.8604 76.6401 48.4828 76.5345L24.6388 73.2082C17.2207 72.1522 11.2332 69.7235 6.67632 65.9221C2.22544 62.1206 0 55.7848 0 46.9148V30.2834C0 21.3077 2.91427 13.0185 8.74279 8.26663C14.5713 3.40922 22.6253 0.980506 32.9047 0.980506C54.0141 0.980506 69.7429 0.92768 91.2688 0.92768C106.1 0.92768 86.2295 32.2765 71.3988 32.2765L40.3758 32.6593C38.9982 32.6593 37.9384 33.1345 37.1966 34.0849C36.4548 34.9296 36.0839 36.0384 36.0839 37.4111C36.0839 38.7839 36.4548 39.9454 37.1966 40.8958C37.9384 41.8462 38.9982 42.3742 40.3758 42.4798L64.0608 45.6476C71.479 46.7036 78.5792 48.8155 83.136 52.617C87.6929 56.4184 89.9713 62.7542 89.9713 71.6243V88.2556C89.9713 97.2313 87.004 107.316 81.0695 112.173C75.241 116.925 66.1273 119.618 55.9539 119.618Z" fill="white"/>
<path d="M195.811 86.6189C195.811 91.4763 195.069 96.7033 193.586 100.716C192.208 104.623 189.665 108.002 185.956 110.853C182.353 113.599 177.319 115.763 170.854 117.347C164.496 118.931 158.849 119.723 148.994 119.723C139.138 119.723 127.657 118.931 121.193 117.347C114.728 115.763 109.642 113.599 105.933 110.853C102.33 108.002 99.7862 104.623 98.3025 100.716C96.9249 96.7033 96.2362 91.4763 96.2362 86.6189V32.6065C96.2362 27.7491 96.925 23.3669 98.3026 19.4598C99.7863 15.4472 102.33 12.0153 105.933 9.1642C109.642 6.31311 114.729 4.09559 121.193 2.51165C127.657 0.927711 139.138 0.135742 148.994 0.135742C158.849 0.135742 164.496 0.927711 170.855 2.51165C177.319 4.09559 182.353 6.31311 185.956 9.1642C189.665 12.0153 192.208 15.4472 193.586 19.4598C195.069 23.3669 195.811 27.7491 195.811 32.6065V86.6189ZM132.32 80.9167C132.32 83.0286 133.115 84.8238 134.704 86.3021C136.294 87.6749 143.271 88.3612 148.994 88.3612C154.716 88.3612 155.912 87.6749 157.502 86.3021C159.092 84.8238 159.886 83.0286 159.886 80.9167V38.3087C159.886 36.3024 159.092 34.6129 157.502 33.2401C155.912 31.7618 154.716 31.0226 148.994 31.0226C143.271 31.0226 136.294 31.7618 134.704 33.2401C133.115 34.6129 132.32 36.3024 132.32 38.3087V80.9167Z" fill="white"/>
<path d="M328.728 119.591H304.045C302.031 119.591 300.547 119.169 299.594 118.324C298.746 117.374 298.322 115.895 298.322 113.889V5.63574C298.322 3.62942 298.746 2.20387 299.594 1.3591C300.547 0.408736 302.38 0.224047 304.393 0.224047H321.111C324.69 0.224047 326.839 1.53956 328.615 4.68537C331.308 9.5462 336.207 28.9767 342.471 28.9767H344.127C351.313 28.9767 354.993 9.35067 357.824 4.18531C360.39 -0.361656 363.579 0.00718708 368.476 0.00718708H384.497C387.334 0.00718708 387.663 3.09579 387.663 5.13568V113.889C387.663 115.895 387.186 117.374 386.232 118.324C385.384 119.169 383.954 119.591 381.94 119.591H356.957C354.943 119.591 353.46 119.169 352.506 118.324C345.071 109.989 356.957 68.5037 359.421 58.1344C347.353 71.1578 338.34 68.5751 327.38 58.1344C329.607 68.1576 340.683 110.689 333.02 118.324C332.172 119.169 330.742 119.591 328.728 119.591Z" fill="white"/>
<path d="M431.007 62.8862C441.674 62.8862 444.994 62.8862 455.485 62.8862C463.015 62.8862 451.716 36.1176 444.994 36.1176H441.02C434.298 36.1176 423.188 62.8862 431.007 62.8862ZM427.509 118.324C426.661 119.169 425.23 119.591 423.217 119.591H399.849C397.836 119.591 396.352 119.169 395.399 118.324C394.551 117.374 394.127 115.895 394.127 113.889V72.073C394.127 68.9051 394.604 65.2621 395.558 61.1438C396.617 57.0256 398.207 52.221 400.326 46.73L414.296 5.7059C414.932 3.91077 415.886 2.59082 417.157 1.74605C418.535 0.901284 420.284 0.478899 422.403 0.478899H465.163C467.177 0.478899 468.819 0.901284 470.091 1.74605C471.469 2.59082 472.475 3.91077 473.111 5.7059L486.801 46.73C488.92 52.221 490.457 57.0256 491.41 61.1438C492.47 65.2621 493 68.9051 493 72.073L492.841 113.889C492.841 115.895 492.364 117.374 491.41 118.324C490.563 119.169 489.132 119.591 487.118 119.591H463.116C460.996 119.591 459.406 119.169 458.347 118.324C452.093 112.093 464.136 99.5624 457.075 91.7139C451.798 85.8488 435.071 85.8489 428.939 91.7139C420.764 99.5331 433.905 111.951 427.509 118.324Z" fill="white"/>
<path d="M354.276 244.136L311.5 244.136C293.5 244.136 289.394 243.33 288.44 242.486C294.162 237.954 299.545 217.978 308.31 213.611C312.48 211.534 316.231 211.698 318.245 211.698L346.805 211.856C348.182 211.856 349.189 211.433 349.825 210.589C350.567 209.638 350.938 208.53 350.938 207.262C350.938 205.467 350.567 204.147 349.825 203.303C349.189 202.458 348.182 201.983 346.805 201.877L322.961 198.551C315.543 197.495 309.555 195.066 304.998 191.265C300.547 187.463 298.322 181.127 298.322 172.257V155.626C298.322 146.65 301.236 138.361 307.065 133.609C312.893 128.752 320.947 125.42 331.227 125.42H381.94C383.954 125.42 385.384 125.895 386.232 126.845C387.186 127.69 387.663 129.116 387.663 131.122V152.3C387.663 154.306 387.186 155.784 386.232 156.735C385.384 157.58 383.954 158.002 381.94 158.002H338.698C337.32 158.002 336.26 158.477 335.519 159.427C334.777 160.272 334.406 161.381 334.406 162.754C334.406 164.126 334.777 165.288 335.519 166.238C336.26 167.189 337.32 167.717 338.698 167.822L362.383 170.99C369.801 172.046 376.901 174.158 381.458 177.96C386.015 181.761 387.663 187.78 387.663 196.65V213.281C387.663 222.257 385.326 232.658 379.392 237.516C373.563 242.268 364.449 244.136 354.276 244.136Z" fill="white"/>
<path d="M30.3074 245.136H5.7124C3.70249 245.136 2.22151 244.712 1.26944 243.864C0.423164 242.911 2.52211e-05 241.428 2.52211e-05 239.415L0 131.668C0 129.655 0.423139 128.224 1.26942 127.377C2.22148 126.423 3.70247 125.946 5.71238 125.946H30.3073C32.3173 125.946 33.7453 126.423 34.5916 127.377C35.5437 128.224 36.0197 129.655 36.0197 131.668L38.6378 167.61H48.3304L52.3767 131.668C52.3767 129.655 52.7999 128.224 53.6461 127.377C54.5982 126.423 56.0792 125.946 58.0891 125.946H83.7154C85.7253 125.946 87.1534 126.423 87.9997 127.377C88.9518 128.224 89.4278 129.655 89.4278 131.668L89.4278 239.415C89.4278 241.428 88.9518 242.911 87.9997 243.864C87.1534 244.712 85.7253 245.136 83.7154 245.136H58.0891C56.0792 245.136 54.5982 244.712 53.6462 243.864C52.7999 242.911 52.3767 241.428 52.3767 239.415L48.3304 200.824H38.6378L36.0197 239.415C36.0197 241.428 35.5437 242.911 34.5916 243.864C33.7454 244.712 32.3173 245.136 30.3074 245.136Z" fill="white"/>
<path d="M195.788 212.716C195.788 217.59 195.048 222.039 193.567 226.065C192.192 229.985 189.653 233.376 185.95 236.236C182.354 238.991 177.329 241.163 170.876 242.752C164.529 244.341 155.451 245.136 145.613 245.136C135.775 245.136 127.629 244.341 121.176 242.752C114.724 241.163 109.646 238.991 105.943 236.236C102.347 233.376 99.8079 229.985 98.3269 226.065C96.9517 222.039 96.2641 217.59 96.2641 212.716V158.525C96.2641 153.651 96.9517 149.255 98.3269 145.335C99.8079 141.309 102.347 137.865 105.943 135.005C109.646 132.144 114.724 129.919 121.176 128.33C127.629 126.741 135.775 125.946 145.613 125.946C155.451 125.946 164.529 126.741 170.876 128.33C177.329 129.919 182.354 132.144 185.95 135.005C189.653 137.865 192.192 141.309 193.567 145.335C195.048 149.255 195.788 153.651 195.788 158.525V212.716ZM132.284 206.995C132.284 209.114 133.077 210.915 134.664 212.398C136.251 213.776 139.9 214.464 145.613 214.464C151.325 214.464 154.975 213.776 156.561 212.398C158.148 210.915 158.942 209.114 158.942 206.995V164.246C158.942 162.233 158.148 160.538 156.561 159.161C154.975 157.677 151.325 156.936 145.613 156.936C139.9 156.936 136.251 157.677 134.664 159.161C133.077 160.538 132.284 162.233 132.284 164.246V206.995Z" fill="white"/>
<path d="M291.781 212.584C291.781 217.457 291.04 221.907 289.559 225.933C286.484 234.699 280.626 240.476 271.536 242.752C265.189 244.341 257.097 245.136 247.259 245.136C235.242 245.136 221.446 243.594 211.556 236.236C207.96 233.376 205.421 229.985 203.94 226.065C202.565 222.039 201.877 217.59 201.877 212.716V131.668C201.877 129.655 202.3 128.224 203.146 127.377C204.098 126.423 205.579 125.946 207.589 125.946H232.917C234.927 125.946 236.355 126.423 237.202 127.377C238.154 128.224 238.63 129.655 238.63 131.668L234.564 206.518C234.564 208.637 235.358 210.438 236.945 211.922C238.531 213.299 242.075 213.988 247.576 213.988C253.183 213.988 256.779 213.299 258.366 211.922C259.953 210.438 260.746 208.637 260.746 206.518L255.034 131.668C255.034 129.655 255.457 128.224 256.303 127.377C257.255 126.423 258.736 125.946 260.746 125.946L286.068 125.814C288.078 125.814 289.506 126.291 290.353 127.244C291.305 128.092 291.781 129.522 291.781 131.535V212.584Z" fill="white"/>
<path d="M487.288 245.003H408.744C396.402 245.003 394.121 231.911 394.121 222.167V144.908C394.121 128.204 403.029 125.814 412.226 125.814H487.288C489.298 125.814 490.726 126.291 491.572 127.244C492.524 128.092 493 129.522 493 131.535V150.129C493 152.142 492.524 153.625 491.572 154.578C490.726 155.426 489.298 155.85 487.288 155.85H430.27V168.086H487.288C489.298 168.086 490.726 168.563 491.572 169.517C492.524 170.364 493 171.795 493 173.808V195.579C493 197.592 492.524 199.076 491.572 200.029C490.726 200.877 489.298 201.3 487.288 201.3H430.27V214.967L469.817 215.338C471.826 215.338 490.726 215.444 491.572 216.398C492.524 217.245 493 218.676 493 220.689V239.282C493 241.295 492.524 242.778 491.572 243.732C490.726 244.579 489.298 245.003 487.288 245.003Z" fill="white"/>
<path d="M232.184 119.325H207.589C205.579 119.325 204.099 118.901 203.146 118.054C202.3 117.1 201.877 115.617 201.877 113.604L201.877 5.85677C201.877 3.84379 202.3 2.41352 203.146 1.56595C204.098 0.612438 205.579 0.135681 207.589 0.135681H232.184C234.194 0.135681 235.622 0.612438 236.469 1.56595C237.421 2.41352 237.897 3.84379 237.897 5.85677L240.515 41.7988H250.207L254.254 5.85677C254.254 3.84379 254.677 2.41352 255.523 1.56595C256.475 0.612438 257.956 0.135681 259.966 0.135681H285.592C287.602 0.135681 289.03 0.612438 289.877 1.56595C290.829 2.41352 291.305 3.84379 291.305 5.85677L291.305 113.604C291.305 115.617 290.829 117.1 289.877 118.054C289.03 118.901 287.602 119.325 285.592 119.325H259.966C257.956 119.325 256.475 118.901 255.523 118.054C254.677 117.1 254.254 115.617 254.254 113.604L250.207 75.0129C250.207 66.9539 240.515 66.9539 240.515 75.0129L237.897 113.604C237.897 115.617 237.421 117.1 236.469 118.054C235.622 118.901 234.194 119.325 232.184 119.325Z" fill="white"/>
<path d="M492.5 257.636V287.136C492.5 291.83 488.694 295.636 484 295.636H9C4.30558 295.636 0.5 291.83 0.5 287.136V257.636H492.5Z" stroke="white"/>
<path d="M62.2874 270.499H64.867L68.3215 278.931H68.4579L71.9124 270.499H74.492V282.136H72.4692V274.141H72.3613L69.1454 282.102H67.634L64.4181 274.124H64.3101V282.136H62.2874V270.499ZM80.1474 282.136V270.499H87.7156V272.266H82.2554V275.425H87.3236V277.192H82.2554V280.369H87.7611V282.136H80.1474ZM97.1694 282.136H93.2262V270.499H97.2489C98.4042 270.499 99.3966 270.732 100.226 271.198C101.06 271.66 101.7 272.325 102.147 273.192C102.594 274.06 102.817 275.098 102.817 276.306C102.817 277.518 102.592 278.56 102.141 279.431C101.694 280.302 101.048 280.971 100.203 281.437C99.3625 281.903 98.3512 282.136 97.1694 282.136ZM95.3341 280.312H97.0671C97.8777 280.312 98.5538 280.164 99.0955 279.869C99.6372 279.569 100.044 279.124 100.317 278.533C100.59 277.939 100.726 277.196 100.726 276.306C100.726 275.416 100.59 274.677 100.317 274.09C100.044 273.499 99.6409 273.058 99.1069 272.766C98.5766 272.471 97.9175 272.323 97.1296 272.323H95.3341V280.312ZM110.288 270.499V282.136H108.18V270.499H110.288ZM125.891 274.425H123.766C123.705 274.077 123.593 273.768 123.431 273.499C123.268 273.227 123.065 272.996 122.823 272.806C122.58 272.617 122.304 272.475 121.993 272.38C121.686 272.282 121.355 272.232 120.999 272.232C120.366 272.232 119.806 272.391 119.317 272.71C118.828 273.024 118.446 273.486 118.169 274.096C117.893 274.702 117.754 275.442 117.754 276.317C117.754 277.208 117.893 277.958 118.169 278.567C118.449 279.174 118.832 279.632 119.317 279.942C119.806 280.249 120.364 280.403 120.993 280.403C121.342 280.403 121.667 280.357 121.97 280.266C122.277 280.172 122.552 280.033 122.794 279.852C123.04 279.67 123.247 279.446 123.414 279.181C123.584 278.916 123.701 278.613 123.766 278.272L125.891 278.283C125.811 278.836 125.639 279.355 125.374 279.84C125.112 280.325 124.77 280.753 124.345 281.124C123.921 281.492 123.425 281.78 122.857 281.988C122.289 282.192 121.658 282.295 120.965 282.295C119.942 282.295 119.029 282.058 118.226 281.585C117.423 281.111 116.79 280.427 116.328 279.533C115.866 278.639 115.635 277.567 115.635 276.317C115.635 275.064 115.868 273.992 116.334 273.102C116.8 272.208 117.434 271.524 118.237 271.05C119.04 270.577 119.949 270.34 120.965 270.34C121.612 270.34 122.215 270.431 122.771 270.613C123.328 270.795 123.824 271.062 124.26 271.414C124.696 271.763 125.054 272.191 125.334 272.698C125.618 273.202 125.804 273.778 125.891 274.425ZM133.289 270.499V282.136H131.181V270.499H133.289ZM148.494 270.499V282.136H146.619L141.136 274.21H141.04V282.136H138.932V270.499H140.818L146.295 278.431H146.398V270.499H148.494ZM154.151 282.136V270.499H161.719V272.266H156.259V275.425H161.327V277.192H156.259V280.369H161.765V282.136H154.151ZM177.383 278.817C176.924 278.817 176.506 278.706 176.127 278.482C175.748 278.255 175.445 277.952 175.218 277.573C174.994 277.194 174.883 276.776 174.883 276.317C174.883 275.855 174.994 275.437 175.218 275.062C175.445 274.683 175.748 274.382 176.127 274.158C176.506 273.931 176.924 273.817 177.383 273.817C177.845 273.817 178.263 273.931 178.638 274.158C179.017 274.382 179.318 274.683 179.542 275.062C179.769 275.437 179.883 275.855 179.883 276.317C179.883 276.776 179.769 277.194 179.542 277.573C179.318 277.952 179.017 278.255 178.638 278.482C178.263 278.706 177.845 278.817 177.383 278.817ZM193.185 270.499H195.764L199.219 278.931H199.355L202.81 270.499H205.389V282.136H203.367V274.141H203.259L200.043 282.102H198.532L195.316 274.124H195.208V282.136H193.185V270.499ZM221.443 276.317C221.443 277.571 221.208 278.645 220.738 279.539C220.272 280.429 219.636 281.111 218.829 281.585C218.026 282.058 217.115 282.295 216.096 282.295C215.077 282.295 214.164 282.058 213.357 281.585C212.554 281.107 211.918 280.424 211.448 279.533C210.982 278.639 210.749 277.567 210.749 276.317C210.749 275.064 210.982 273.992 211.448 273.102C211.918 272.208 212.554 271.524 213.357 271.05C214.164 270.577 215.077 270.34 216.096 270.34C217.115 270.34 218.026 270.577 218.829 271.05C219.636 271.524 220.272 272.208 220.738 273.102C221.208 273.992 221.443 275.064 221.443 276.317ZM219.323 276.317C219.323 275.435 219.185 274.691 218.909 274.085C218.636 273.475 218.257 273.014 217.772 272.704C217.287 272.389 216.729 272.232 216.096 272.232C215.463 272.232 214.905 272.389 214.42 272.704C213.935 273.014 213.554 273.475 213.278 274.085C213.005 274.691 212.869 275.435 212.869 276.317C212.869 277.2 213.005 277.946 213.278 278.556C213.554 279.162 213.935 279.622 214.42 279.937C214.905 280.247 215.463 280.403 216.096 280.403C216.729 280.403 217.287 280.247 217.772 279.937C218.257 279.622 218.636 279.162 218.909 278.556C219.185 277.946 219.323 277.2 219.323 276.317ZM227.727 270.499L230.756 279.658H230.875L233.898 270.499H236.216L232.114 282.136H229.511L225.415 270.499H227.727ZM241.109 282.136V270.499H248.677V272.266H243.217V275.425H248.285V277.192H243.217V280.369H248.722V282.136H241.109ZM254.187 270.499H256.767L260.222 278.931H260.358L263.812 270.499H266.392V282.136H264.369V274.141H264.261L261.045 282.102H259.534L256.318 274.124H256.21V282.136H254.187V270.499ZM272.047 282.136V270.499H279.616V272.266H274.155V275.425H279.224V277.192H274.155V280.369H279.661V282.136H272.047ZM294.689 270.499V282.136H292.814L287.331 274.21H287.234V282.136H285.126V270.499H287.013L292.49 278.431H292.592V270.499H294.689ZM299.834 272.266V270.499H309.118V272.266H305.522V282.136H303.431V272.266H299.834ZM324.421 278.817C323.962 278.817 323.544 278.706 323.165 278.482C322.786 278.255 322.483 277.952 322.256 277.573C322.032 277.194 321.921 276.776 321.921 276.317C321.921 275.855 322.032 275.437 322.256 275.062C322.483 274.683 322.786 274.382 323.165 274.158C323.544 273.931 323.962 273.817 324.421 273.817C324.883 273.817 325.301 273.931 325.676 274.158C326.055 274.382 326.356 274.683 326.58 275.062C326.807 275.437 326.921 275.855 326.921 276.317C326.921 276.776 326.807 277.194 326.58 277.573C326.356 277.952 326.055 278.255 325.676 278.482C325.301 278.706 324.883 278.817 324.421 278.817ZM350.183 274.425H348.058C347.998 274.077 347.886 273.768 347.723 273.499C347.56 273.227 347.358 272.996 347.115 272.806C346.873 272.617 346.596 272.475 346.286 272.38C345.979 272.282 345.647 272.232 345.291 272.232C344.659 272.232 344.098 272.391 343.609 272.71C343.121 273.024 342.738 273.486 342.462 274.096C342.185 274.702 342.047 275.442 342.047 276.317C342.047 277.208 342.185 277.958 342.462 278.567C342.742 279.174 343.125 279.632 343.609 279.942C344.098 280.249 344.657 280.403 345.286 280.403C345.634 280.403 345.96 280.357 346.263 280.266C346.57 280.172 346.844 280.033 347.087 279.852C347.333 279.67 347.539 279.446 347.706 279.181C347.876 278.916 347.994 278.613 348.058 278.272L350.183 278.283C350.104 278.836 349.931 279.355 349.666 279.84C349.405 280.325 349.062 280.753 348.638 281.124C348.214 281.492 347.717 281.78 347.149 281.988C346.581 282.192 345.95 282.295 345.257 282.295C344.234 282.295 343.322 282.058 342.518 281.585C341.715 281.111 341.083 280.427 340.621 279.533C340.159 278.639 339.928 277.567 339.928 276.317C339.928 275.064 340.161 273.992 340.626 273.102C341.092 272.208 341.727 271.524 342.53 271.05C343.333 270.577 344.242 270.34 345.257 270.34C345.905 270.34 346.507 270.431 347.064 270.613C347.621 270.795 348.117 271.062 348.553 271.414C348.988 271.763 349.346 272.191 349.626 272.698C349.911 273.202 350.096 273.778 350.183 274.425ZM362.809 270.499H364.917V278.102C364.917 278.935 364.72 279.668 364.326 280.3C363.936 280.933 363.387 281.427 362.678 281.783C361.97 282.136 361.142 282.312 360.195 282.312C359.244 282.312 358.415 282.136 357.707 281.783C356.998 281.427 356.449 280.933 356.059 280.3C355.669 279.668 355.474 278.935 355.474 278.102V270.499H357.582V277.925C357.582 278.41 357.688 278.842 357.9 279.221C358.116 279.6 358.419 279.897 358.809 280.113C359.199 280.325 359.661 280.431 360.195 280.431C360.729 280.431 361.191 280.325 361.582 280.113C361.976 279.897 362.279 279.6 362.491 279.221C362.703 278.842 362.809 278.41 362.809 277.925V270.499ZM370.568 282.136V270.499H372.676V280.369H377.801V282.136H370.568ZM380.995 272.266V270.499H390.279V272.266H386.682V282.136H384.591V272.266H380.995ZM402.764 270.499H404.872V278.102C404.872 278.935 404.675 279.668 404.281 280.3C403.891 280.933 403.342 281.427 402.633 281.783C401.925 282.136 401.097 282.312 400.15 282.312C399.2 282.312 398.37 282.136 397.662 281.783C396.953 281.427 396.404 280.933 396.014 280.3C395.624 279.668 395.429 278.935 395.429 278.102V270.499H397.537V277.925C397.537 278.41 397.643 278.842 397.855 279.221C398.071 279.6 398.374 279.897 398.764 280.113C399.154 280.325 399.616 280.431 400.15 280.431C400.684 280.431 401.146 280.325 401.537 280.113C401.931 279.897 402.234 279.6 402.446 279.221C402.658 278.842 402.764 278.41 402.764 277.925V270.499ZM410.523 282.136V270.499H414.887C415.781 270.499 416.531 270.655 417.137 270.965C417.747 271.276 418.207 271.711 418.517 272.272C418.832 272.829 418.989 273.478 418.989 274.221C418.989 274.967 418.83 275.615 418.512 276.164C418.197 276.71 417.733 277.132 417.12 277.431C416.506 277.727 415.752 277.874 414.858 277.874H411.75V276.124H414.574C415.097 276.124 415.525 276.052 415.858 275.908C416.192 275.761 416.438 275.547 416.597 275.266C416.76 274.982 416.841 274.634 416.841 274.221C416.841 273.808 416.76 273.456 416.597 273.164C416.434 272.869 416.186 272.645 415.853 272.494C415.519 272.338 415.089 272.261 414.563 272.261H412.631V282.136H410.523ZM416.534 276.863L419.415 282.136H417.063L414.233 276.863H416.534ZM424.289 282.136V270.499H431.857V272.266H426.397V275.425H431.465V277.192H426.397V280.369H431.903V282.136H424.289Z" fill="white"/>
</svg>
