<svg width="493" height="120" viewBox="0 0 493 120" fill="none" xmlns="http://www.w3.org/2000/svg">
<path d="M55.9539 119.611H5.72256C3.70906 119.611 2.22544 119.188 1.27168 118.344C0.423893 117.393 0 115.915 0 113.908V92.2084C0 90.2021 0.423893 88.7764 1.27168 87.9316C2.22544 86.9813 3.70906 86.5061 5.72256 86.5061H48.4828C49.8604 86.5061 50.8672 86.0838 51.503 85.239C52.2448 84.2887 52.6157 83.1799 52.6157 81.9128C52.6157 80.1176 52.2448 78.7977 51.503 77.9529C50.8672 77.1081 49.8604 76.633 48.4828 76.5274L24.6388 73.201C17.2207 72.145 11.2332 69.7163 6.67632 65.9149C2.22544 62.1134 0 55.7776 0 46.9076V30.2763C0 21.3006 2.91427 13.0114 8.74279 8.25948C14.5713 3.40207 22.6253 0.973358 32.9047 0.973358C54.0141 0.973358 69.7429 0.920532 91.2688 0.920532C106.1 0.920532 86.2295 32.2694 71.3988 32.2694L40.3758 32.6522C38.9982 32.6522 37.9384 33.1274 37.1966 34.0778C36.4548 34.9225 36.0839 36.0312 36.0839 37.4039C36.0839 38.7767 36.4548 39.9383 37.1966 40.8887C37.9384 41.8391 38.9982 42.3671 40.3758 42.4727L64.0608 45.6404C71.479 46.6964 78.5792 48.8084 83.136 52.6099C87.6929 56.4113 89.9713 62.747 89.9713 71.6171V88.2485C89.9713 97.2242 87.004 107.309 81.0695 112.166C75.241 116.918 66.1273 119.611 55.9539 119.611Z" fill="#8E2A22"/>
<path d="M195.811 86.6117C195.811 91.4691 195.069 96.6961 193.586 100.709C192.208 104.616 189.665 107.995 185.956 110.846C182.353 113.592 177.319 115.756 170.854 117.34C164.496 118.924 158.849 119.716 148.994 119.716C139.138 119.716 127.657 118.924 121.193 117.34C114.728 115.756 109.642 113.592 105.933 110.846C102.33 107.995 99.7861 104.616 98.3024 100.709C96.9248 96.6961 96.2361 91.4691 96.2361 86.6117V32.5993C96.2361 27.7419 96.9249 23.3597 98.3025 19.4526C99.7862 15.44 102.33 12.0081 105.933 9.157C109.642 6.30591 114.729 4.08839 121.193 2.50445C127.657 0.920509 139.138 0.12854 148.994 0.12854C158.849 0.12854 164.496 0.920509 170.855 2.50445C177.319 4.08839 182.353 6.30591 185.956 9.157C189.665 12.0081 192.208 15.44 193.586 19.4526C195.069 23.3597 195.811 27.7419 195.811 32.5993V86.6117ZM132.32 80.9095C132.32 83.0214 133.115 84.8166 134.704 86.2949C136.294 87.6677 143.271 88.354 148.994 88.354C154.716 88.354 155.912 87.6677 157.502 86.2949C159.092 84.8166 159.886 83.0214 159.886 80.9095V38.3015C159.886 36.2952 159.092 34.6057 157.502 33.2329C155.912 31.7546 154.716 31.0154 148.994 31.0154C143.271 31.0154 136.294 31.7546 134.704 33.2329C133.115 34.6057 132.32 36.2952 132.32 38.3015V80.9095Z" fill="#8E2A22"/>
<path d="M318.5 119.584H304.045C300.213 119.584 298 117.832 298 113.993V5.99281C298 1.87027 300.502 0.21686 304.393 0.21686H318.5C323.5 0.21686 327 0.21686 328.615 4.67818C331.308 9.53901 334.5 31.4928 343.5 31.4928H344H344.5C353 31.4928 354.993 9.34348 357.824 4.17812C360.114 -1.52588e-05 363.5 0.21686 368.476 0H382.5C386 0 388 1.85713 388 4.99281V113.993C388 117.743 385.652 119.584 381.94 119.584H368.476C346 119.584 354 81.4928 357 62.4928C342.5 69.4928 343.844 69.4928 329 62.4928C332 80.9928 339.5 119.584 318.5 119.584Z" fill="#8E2A22"/>
<path d="M431.007 62.879C441.674 62.879 444.994 62.879 455.485 62.879C463.015 62.879 451.716 36.1104 444.994 36.1104H441.02C434.298 36.1104 423.188 62.879 431.007 62.879ZM427.509 118.317C426.661 119.162 425.23 119.584 423.217 119.584H399.849C397.836 119.584 396.352 119.162 395.399 118.317C394.551 117.367 394.127 115.888 394.127 113.882V72.0658C394.127 68.8979 394.604 65.2549 395.558 61.1366C396.617 57.0184 398.207 52.2138 400.326 46.7228L414.296 5.69868C414.932 3.90355 415.886 2.5836 417.157 1.73883C418.535 0.894065 420.284 0.47168 422.403 0.47168H465.163C467.177 0.47168 468.819 0.894065 470.091 1.73883C471.469 2.5836 472.475 3.90355 473.111 5.69868L486.801 46.7228C488.92 52.2138 490.457 57.0184 491.41 61.1366C492.47 65.2549 493 68.8979 493 72.0658L492.841 113.882C492.841 115.888 492.364 117.367 491.41 118.317C490.563 119.162 489.132 119.584 487.118 119.584H463.116C460.996 119.584 459.406 119.162 458.347 118.317C452.093 112.086 464.136 99.5552 457.075 91.7067C451.798 85.8416 435.071 85.8417 428.939 91.7067C420.764 99.5259 433.905 111.944 427.509 118.317Z" fill="#8E2A22"/>
<path d="M232.184 119.318H207.589C205.579 119.318 204.099 118.894 203.146 118.047C202.3 117.093 201.877 115.61 201.877 113.597V5.84951C201.877 3.83653 202.3 2.40626 203.146 1.55869C204.098 0.605175 205.579 0.128418 207.589 0.128418H232.184C234.194 0.128418 235.622 0.605175 236.469 1.55869C237.421 2.40626 237.897 3.83653 237.897 5.84951V41.7915L246.5 37.9928L254 41.9928L254.254 5.84951C254.254 3.83653 254.677 2.40626 255.523 1.55869C256.475 0.605175 257.956 0.128418 259.966 0.128418H285.592C287.602 0.128418 289.03 0.605175 289.877 1.55869C290.829 2.40626 291.305 3.83653 291.305 5.84951V113.597C291.305 115.61 290.829 117.093 289.877 118.047C289.03 118.894 287.602 119.318 285.592 119.318H259.966C257.956 119.318 256.475 118.894 255.523 118.047C254.677 117.093 254 115.61 254 113.597V75.0056C254 66.9466 237.897 66.9466 237.897 75.0056V113.597C237.897 115.61 237.421 117.093 236.469 118.047C235.622 118.894 234.194 119.318 232.184 119.318Z" fill="#8E2A22"/>
</svg>
