<svg xmlns="http://www.w3.org/2000/svg" width="103" height="47" viewBox="0 0 103 47">
    <g fill="#FFF" fill-rule="nonzero">
        <path d="M22.198 26.448c-.781.449-1.88.727-3.126.727-1.225 0-2.344-.278-3.126-.727-.781-.448-1.88-.726-3.126-.726-1.225 0-2.344.278-3.125.726-.782.449-1.88.727-3.126.727-1.225 0-2.345-.278-3.105-.727-.782-.448-1.88-.726-3.126-.726H0v2.905c0 .449.021.876.042 1.282h.296c1.225 0 2.344.278 3.126.726.781.45 1.88.727 3.105.727s2.344-.278 3.126-.727c.781-.448 1.88-.726 3.125-.726 1.225 0 2.345.278 3.126.726.782.45 1.88.727 3.126.727 1.225 0 2.345-.278 3.126-.727.782-.448 1.88-.726 3.105-.726h.296c.02-.427.042-.833.042-1.282V25.7h-.338c-1.225 0-2.323.3-3.105.748M19.093 35.592c-1.225 0-2.344-.278-3.126-.727-.781-.448-1.88-.726-3.125-.726-1.225 0-2.345.278-3.126.726-.782.45-1.88.727-3.126.727-1.225 0-2.345-.278-3.105-.727-.697-.405-1.647-.662-2.704-.726a15.794 15.794 0 0 0 2.303 4.721c.148.065.274.129.401.193.781.448 1.88.726 3.105.726s2.344-.278 3.126-.726c.781-.449 1.88-.748 3.126-.748 1.225 0 2.344.278 3.125.748.782.448 1.88.726 3.126.726 1.225 0 2.345-.278 3.126-.726.127-.064.254-.15.402-.193a15.794 15.794 0 0 0 2.302-4.72c-1.077.042-2.028.32-2.704.725-.802.45-1.9.727-3.126.727M15.967 43.261c-.781-.448-1.88-.726-3.125-.726-1.225 0-2.345.278-3.126.726-.38.214-.824.385-1.331.513 1.795 1.218 3.443 2.094 4.435 2.948 1.014-.854 2.662-1.73 4.436-2.948a5.81 5.81 0 0 1-1.289-.513M22.198 18.03c-.781.45-1.88.749-3.126.749-1.225 0-2.344-.278-3.126-.748-.781-.449-1.88-.726-3.126-.726-1.225 0-2.344.277-3.125.726-.782.449-1.88.748-3.126.748-1.225 0-2.345-.278-3.105-.748-.782-.449-1.88-.726-3.126-.726H0v4.208h.338c1.225 0 2.344.278 3.126.727.781.448 1.88.726 3.105.726s2.344-.278 3.126-.726c.781-.45 1.88-.727 3.125-.727 1.225 0 2.345.278 3.126.727.782.448 1.88.726 3.126.726 1.225 0 2.345-.278 3.126-.726.782-.45 1.88-.727 3.105-.727h.338v-4.208h-.338c-1.225 0-2.323.277-3.105.726M15.82 8.63a2.349 2.349 0 0 0 0-.768l-.064-.257c-.042-.235-.042-.427-.042-.64 0-.214.063-.492.148-.62-.211-.043-.507.235-.655.47-.105.17-.19.32-.253.513-.021.064-.043.15-.064.213a2.14 2.14 0 0 1-.359.599c-.19.213-.422.384-.633.555a5.057 5.057 0 0 1 1.71.726c.085-.277.17-.512.212-.79zm-5.914-.982c.042.064.063.128.105.192.085.214.148.45.17.663.02.277-.022.577-.064.854a4.688 4.688 0 0 1 1.71-.705c-.105-.213-.21-.448-.358-.662a3.394 3.394 0 0 0-.55-.555c-.063-.043-.147-.086-.21-.15a3.182 3.182 0 0 1-.486-.427c-.148-.171-.296-.385-.338-.556-.17.128-.19.534-.148.812.042.192.084.363.169.534zm3.802.962L12.863.064l-.845 8.546c.274-.043.549-.086.845-.086.274.021.57.043.845.086zm3.294 2.136l1.627-2.927-2.894 1.645c.486.342.93.77 1.267 1.282zM9.97 9.443L7.076 7.798l1.626 2.927a5.583 5.583 0 0 1 1.267-1.282zm9.019 2.243c.042-.064.084-.15.148-.214.126-.192.274-.342.422-.491.169-.15.38-.3.55-.342-.128-.17-.529-.192-.803-.15-.19.043-.36.086-.528.171-.064.043-.127.065-.19.107-.19.086-.444.15-.655.171-.275.022-.57-.021-.845-.064.338.513.57 1.09.697 1.73.211-.106.443-.213.655-.363.21-.15.4-.341.549-.555zM7.857 12.818l-4.604.833 4.604.834a5.533 5.533 0 0 1 0-1.667zm14.595.833l-4.626-.833c.042.278.085.556.085.833 0 .278-.022.556-.085.834l4.626-.834zm-15.334-2.99a1.05 1.05 0 0 1-.254.042c-.232.043-.422.043-.654.043-.212 0-.465-.064-.613-.15-.042.214.232.513.465.663.148.106.317.192.507.256.063.021.147.043.21.064.212.064.423.214.571.363.211.193.38.428.55.641.126-.62.38-1.196.717-1.709a3.538 3.538 0 0 0-.718-.214 2.394 2.394 0 0 0-.781 0zM12.842 9.4c-2.303 0-4.182 1.901-4.182 4.251 0 .214.02.428.042.62.38-.128.74-.256 1.035-.449.781-.448 1.88-.726 3.126-.726 1.225 0 2.344.278 3.126.726.295.171.654.32 1.035.449.02-.214.042-.406.042-.62-.021-2.35-1.901-4.251-4.224-4.251z"/>
        <g>
            <path d="M31.196 19.27c0-1.282-.021-1.517-1.542-1.73v-.171h3.97v.17c-1.393.193-1.414.535-1.414 1.731v4.187c.02 2.265-.254 2.778-2.767 3.867l-.085-.192c1.69-.812 1.838-2.072 1.838-4.166V19.27zM36.856 18.394l-1.077 3.034h2.281l-1.204-3.034zm-1.288 3.59c-.19.576-.697 1.794-.697 2.37 0 .706.802.706 1.31.791v.17h-3.169v-.17c1.035-.278 1.14-.513 1.5-1.431l1.31-3.44.696-1.901c.106-.3.254-.577.127-.812.317-.128.591-.342.845-.641l2.534 6.858c.317.854.507 1.196 1.436 1.367v.17h-3.4v-.17c.401-.085.887-.214.887-.748 0-.491-.443-1.58-.74-2.414h-2.64zM47.058 23.607l2.09-4.657c.296-.641.444-1.218.19-1.41l.022-.193h2.534v.171c-.739.15-1.183.427-1.14 1.26l.253 4.252c.127 1.624.127 1.88 1.352 2.094v.17h-3.802v-.17c.887-.15 1.457-.257 1.394-1.282l-.317-5.106-2.936 6.559h-.126l-2.746-6.281h-.021a75.064 75.064 0 0 0-.36 4.892c-.02.449-.02.983 1.395 1.218v.17h-3.232v-.17c1.035-.171 1.14-.684 1.289-1.624l.422-3.29.148-1.58c.063-.77-.591-1.048-1.267-1.09v-.171h2.492l.021.128c-.253.278.063.961.148 1.153l2.197 4.957zM52.845 25.124c1.394-.193 1.394-.534 1.436-1.752v-4.123c-.042-1.197-.042-1.56-1.436-1.73v-.172h6.21l-.149 1.795h-.169c-.084-1.517-1.161-1.517-2.323-1.517h-1.12v3.333H56.5c.866 0 1.52-.064 1.647-1.068h.169v2.606h-.169c-.148-1.026-.781-1.047-1.647-1.047h-1.204v1.923c0 .683-.17 1.645 1.732 1.645 1.457 0 2.175-.556 2.47-2.03h.17a7.612 7.612 0 0 1-.402 2.308h-6.42v-.171zM64.968 19.42h-.19c-.19-.94-.486-1.86-1.626-1.86-.74 0-1.352.514-1.352 1.283 0 2.03 3.633 1.944 3.633 4.315 0 1.517-1.479 2.286-2.81 2.286a3.811 3.811 0 0 1-2.027-.598l-.338-1.987h.211c.296 1.132 1.056 2.222 2.345 2.222.845 0 1.52-.513 1.52-1.431 0-2.073-3.527-1.902-3.527-4.23 0-1.368 1.33-2.222 2.577-2.222.591 0 1.183.17 1.69.448l-.106 1.774zM75.19 19.761h-.168c-.211-1.324-.993-2.264-2.366-2.264-2.112 0-3.316 1.752-3.316 3.76 0 2.307 1.753 3.91 3.422 3.91 1.52 0 2.112-1.112 2.64-2.393l.169.064c-.148.705-.36 1.41-.634 2.093-.739.364-1.542.513-2.365.513-2.408 0-4.562-1.41-4.562-4.038 0-2.072 1.605-4.187 4.646-4.187.887 0 1.774.171 2.535.641v1.901zM77.493 21.043c0 1.816.95 4.123 3.02 4.123 1.901 0 2.746-1.965 2.746-3.631-.042-2.073-1.225-4.038-3-4.038-1.964 0-2.766 1.965-2.766 3.546m7.118.278c0 2.52-1.796 4.123-4.225 4.123-2.428 0-4.224-1.602-4.224-4.123 0-2.5 1.796-4.102 4.224-4.102 2.957 0 4.225 2.03 4.225 4.102M86.786 21.043c0 1.816.95 4.123 3.02 4.123 1.901 0 2.746-1.965 2.746-3.631-.042-2.073-1.225-4.038-2.999-4.038-1.985 0-2.767 1.965-2.767 3.546m7.118.278c0 2.52-1.795 4.123-4.224 4.123-2.43 0-4.224-1.602-4.224-4.123 0-2.5 1.795-4.102 4.224-4.102 2.936 0 4.224 2.03 4.224 4.102M101.782 17.347v.171c-1.31.15-2.197 1.282-3.041 2.18l-1.078 1.174 2.345 2.628c.697.79 1.542 1.474 2.555 1.773l-.063.171c-2.006-.17-2.323-.214-3.421-1.431l-2.366-2.585 1.859-2.051c1.204-1.389.971-1.773.21-1.837v-.171h3v-.022zm-5.217 6.046c.042 1.197.042 1.56 1.542 1.752v.17h-3.992v-.17c1.394-.192 1.394-.534 1.436-1.752V19.27c-.042-1.196-.042-1.56-1.436-1.73v-.171h3.675v.17c-1.183.193-1.183.535-1.225 1.731v4.123zM38.694 28.328v.171c-1.056.107-1.12.77-1.162 2.307l-.063 2.564c-.043 1.517-.676 3.034-3.232 3.034-3.59 0-3.21-2.628-3.21-3.547V30.23c-.043-1.197-.043-1.56-1.437-1.752v-.171h3.992v.17c-1.52.214-1.541.45-1.541 1.753v2.392c0 .214-.38 3.248 2.788 3.248 2.492 0 2.26-2.415 2.26-3.825v-1.217c0-1.474-.106-2.158-1.732-2.308v-.17h3.337v-.022zM46.74 34.438l-.063-4.273c-.02-1.11-.316-1.43-1.626-1.666v-.17h3.147v.17c-.803.107-.95.556-1.035 1.303-.169 1.282-.105 4.102-.042 6.644l-.148.043c-1.859-2.2-3.907-4.251-5.85-6.388v2.158c0 2.906-.064 3.504 1.605 3.824v.171h-3.464v-.15c1.563-.17 1.5-1.239 1.5-3.888v-1.751c0-1.175-.19-1.624-1.648-1.945v-.17h1.901l5.724 6.088zM51.155 34.353c.042 1.196.042 1.56 1.436 1.73v.171h-3.886v-.15c1.394-.192 1.394-.534 1.436-1.73v-4.123c-.042-1.196-.042-1.56-1.436-1.752v-.17h3.886v.17c-1.394.192-1.394.534-1.436 1.752v4.102zM61.525 28.328v.171c-1.077.086-1.415 1.026-2.133 2.713l-2.217 5.32h-.17l-2.618-6.324c-.338-.854-.613-1.602-1.648-1.709v-.17h3.654v.17c-1.626.171-1.098 1.09-.803 1.837l1.86 4.508 1.372-3.311c.993-2.393 1.183-2.778-.57-3.034v-.17h3.273zM61.61 36.105c1.394-.193 1.394-.535 1.436-1.73V30.25c-.042-1.196-.042-1.56-1.436-1.752v-.17h6.21l-.148 1.794h-.17c-.084-1.517-1.161-1.517-2.323-1.517h-1.12v3.333h1.205c.866 0 1.52-.064 1.647-1.069h.17v2.607h-.17c-.148-1.026-.781-1.047-1.647-1.047H64.06v1.923c0 .683-.169 1.645 1.732 1.645 1.457 0 2.175-.556 2.45-2.03h.169a7.612 7.612 0 0 1-.401 2.307h-6.421v-.17h.02zM71.326 32.28c1.119-.02 2.407-.534 2.407-1.815 0-1.368-1.182-1.923-2.407-1.902v3.717zm-1.014-1.538c0-1.794-.064-2.05-1.352-2.179v-.17l2.81-.086c2.914-.086 3.146 1.346 3.146 1.901 0 .983-.591 1.538-1.436 1.923l.063.085c.887 1.581 2.007 3.59 3.908 3.995l-.043.171c-1.225-.064-2.133-.021-2.788-.726a10.359 10.359 0 0 1-1.605-2.329c-.464-.961-.887-.683-1.69-.833v1.88c0 1.282.022 1.517 1.606 1.73v.171h-4.055v-.17c1.394-.193 1.394-.535 1.436-1.73v-3.633zM81.823 30.38h-.19c-.19-.94-.486-1.86-1.627-1.86-.739 0-1.351.513-1.351 1.282 0 2.03 3.632 1.944 3.632 4.316 0 1.517-1.478 2.286-2.809 2.286a3.811 3.811 0 0 1-2.027-.599l-.338-1.986h.21c.297 1.132 1.057 2.221 2.345 2.221.845 0 1.521-.512 1.521-1.43 0-2.073-3.527-1.902-3.527-4.23 0-1.368 1.33-2.223 2.577-2.223.591 0 1.182.171 1.69.449l-.106 1.773zM85.202 34.353c.042 1.196.042 1.56 1.436 1.73v.171h-3.886v-.15c1.394-.192 1.394-.534 1.436-1.73v-4.123c-.042-1.196-.042-1.56-1.436-1.752v-.17h3.886v.17c-1.394.192-1.394.534-1.436 1.752v4.102zM94.284 27.965h.085l.169 2.18-.17.042c-.4-1.453-1.034-1.517-2.365-1.517h-.697v5.405c0 1.453.063 1.837 1.626 2.03v.17h-4.245v-.17c1.542-.193 1.626-.577 1.626-2.03V28.67h-.697c-1.33 0-1.964.064-2.365 1.517l-.17-.043.17-2.179h.084l.106.107c.296.278.338.256.718.256h5.301c.38 0 .423.022.718-.256l.106-.107zM102.162 28.328v.171c-1.014.086-1.5.641-1.985 1.496l-1.373 2.734v1.325c.021 1.346.042 1.816 1.52 2.05v.171h-4.076v-.17c1.479-.235 1.5-.705 1.521-2.051v-.94l-1.204-2.65c-.443-.982-.76-1.815-1.922-1.944v-.17h3.19v.17c-.951.129-.824.513-.444 1.325l1.162 2.52 1.013-1.922c.718-1.346.634-1.794-.38-1.923v-.17h2.978v-.022zM30.963 38.582h70.46v1h-70.46zM33.371 40.869h.908l2.472 5.704h-1.057l-.57-1.368h-2.64l-.57 1.368H30.9l2.471-5.704zm1.394 3.44l-.971-2.265-.95 2.264h1.921zM37.088 44.159V40.89h.993v3.226c0 1.047.528 1.602 1.415 1.602.866 0 1.415-.534 1.415-1.56V40.89h.993v3.205c0 1.687-.95 2.542-2.408 2.542-1.478.021-2.408-.833-2.408-2.478zM42.453 45.74l.592-.705c.528.47 1.077.726 1.774.726.612 0 .992-.3.992-.705v-.021c0-.406-.232-.62-1.267-.855-1.183-.3-1.858-.64-1.858-1.688v-.021c0-.961.802-1.645 1.9-1.645.824 0 1.458.256 2.028.705l-.528.748c-.507-.385-1.014-.577-1.52-.577-.571 0-.909.299-.909.662v.021c0 .428.254.641 1.33.898 1.183.299 1.796.726 1.796 1.666v.021c0 1.069-.824 1.688-2.007 1.688a3.587 3.587 0 0 1-2.323-.918zM49.085 41.83h-1.774v-.919h4.541v.919h-1.774v4.743h-.993V41.83zM52.74 40.89h2.491c.697 0 1.247.214 1.606.555.295.3.464.727.464 1.218v.022c0 .94-.549 1.495-1.33 1.709l1.52 2.136H56.33l-1.373-1.965h-1.225v1.965h-.993v-5.64zm2.407 2.82c.697 0 1.162-.363 1.162-.94v-.021c0-.599-.423-.94-1.162-.94H53.71v1.901h1.436zM60.997 40.869h.909l2.47 5.704h-1.034l-.57-1.368h-2.64l-.57 1.368h-1.015l2.45-5.704zm1.394 3.44l-.971-2.265-.95 2.264h1.921zM65.37 40.89h.992v4.764h2.936v.897h-3.929V40.89zM70.227 40.89h.993v5.683h-.993zM74.642 40.869h.908l2.47 5.704h-1.034l-.57-1.368h-2.64l-.57 1.368h-1.014l2.45-5.704zm1.394 3.44l-.972-2.265-.95 2.264h1.922z"/>
        </g>
    </g>
</svg>
